<svg width="348" height="197" viewBox="0 0 348 197" fill="none" xmlns="http://www.w3.org/2000/svg">
<path fill-rule="evenodd" clip-rule="evenodd" d="M27.8359 33.3774H53.8482L95.9632 104.07C96.9081 105.841 97.9097 107.758 98.9714 109.828C100.033 111.894 101.038 113.814 101.98 115.586C103.041 117.712 103.986 119.778 104.811 121.787H105.165C105.048 119.307 104.931 116.766 104.811 114.169C104.694 111.922 104.606 109.53 104.545 106.993C104.489 104.452 104.457 102.061 104.457 99.8176V0.95459H129.761V160.057H104.988L61.8111 90.073C60.7494 88.4182 59.7195 86.5578 58.7144 84.492C57.7128 82.4226 56.7396 80.5056 55.7947 78.7338C54.733 76.6078 53.7314 74.5384 52.7864 72.5328H52.4325C52.5528 75.1301 52.6696 77.7275 52.7864 80.3285C52.9068 82.5715 52.9952 84.9633 53.0519 87.504C53.112 90.0411 53.1404 92.4329 53.1404 94.6795V160.057H27.8359V33.3774Z" fill="black"/>
<path fill-rule="evenodd" clip-rule="evenodd" d="M336.797 0.95459H104.452V22.5698H336.797L347.416 11.7622L336.797 0.95459Z" fill="black"/>
<path d="M0.588272 138.441H47.835V160.057H0.588272V138.441Z" fill="black"/>
<path fill-rule="evenodd" clip-rule="evenodd" d="M181.786 93.7936L143.918 33.3773H172.762L196.12 73.4186H196.474L219.832 33.3773H247.79L210.63 93.6164L252.568 160.057H222.663L196.828 113.814H196.474L170.284 160.057H140.91L181.786 93.7936Z" fill="black"/>
<path d="M298.753 19.26H273.095V160.057H298.753V19.26Z" fill="black"/>
<path d="M11.4174 196.832C9.78156 196.832 8.31587 196.556 7.02032 196.002C5.72413 195.45 4.59872 194.662 3.64283 193.642C2.64424 192.557 1.88464 191.281 1.36463 189.813C0.84399 188.346 0.583984 186.74 0.583984 184.996C0.583984 183.188 0.87585 181.524 1.46022 180.003C2.04395 178.483 2.87811 177.18 3.96146 176.095C4.91735 175.138 6.04276 174.394 7.33895 173.862C8.6345 173.33 10.111 173.064 11.7679 173.064C13.2336 173.064 14.5502 173.251 15.7189 173.623C16.887 173.995 17.8958 174.527 18.7459 175.218C19.5954 175.909 20.2804 176.744 20.8011 177.722C21.3211 178.701 21.6773 179.786 21.8685 180.976H16.388C16.1752 180.041 15.6972 179.264 14.9542 178.647C14.2105 178.031 13.2119 177.722 11.9591 177.722C11.0242 177.722 10.2009 177.908 9.4897 178.28C8.77788 178.653 8.18842 179.163 7.72131 179.812C7.25356 180.461 6.90305 181.226 6.66981 182.109C6.43594 182.992 6.31933 183.954 6.31933 184.996C6.31933 186.039 6.45188 187.006 6.71761 187.899C6.98271 188.792 7.35997 189.564 7.84875 190.212C8.33689 190.861 8.9372 191.366 9.64902 191.727C10.3602 192.089 11.1625 192.27 12.0547 192.27C12.7977 192.27 13.4617 192.158 14.0461 191.935C14.6298 191.711 15.1295 191.414 15.5437 191.041C15.9579 190.669 16.2867 190.244 16.5314 189.765C16.7755 189.287 16.9297 188.792 16.9934 188.282V188.218H12.7238V184.071H22.219V196.321H18.268L17.9493 193.578H17.8856C17.1419 194.748 16.223 195.582 15.1295 196.082C14.0353 196.582 12.7977 196.832 11.4174 196.832Z" fill="black"/>
<path d="M30.376 173.511H47.6457V178.169H36.0157V182.252H45.9889V186.655H36.0157V191.536H47.8369V196.321H30.376V173.511Z" fill="black"/>
<path d="M55.8027 173.511H61.4743L68.2293 184.964C68.3141 185.134 68.4466 185.379 68.6276 185.698C68.8079 186.017 68.9832 186.336 69.1533 186.655C69.3656 187.038 69.5778 187.442 69.7906 187.867H69.8543C69.8327 187.357 69.8225 186.868 69.8225 186.4C69.8008 185.996 69.7906 185.602 69.7906 185.219V173.511H75.3029V196.321H69.6313L62.9401 185.028C62.8336 184.879 62.6902 184.64 62.5099 184.31C62.3289 183.981 62.1537 183.635 61.9842 183.273C61.7713 182.869 61.5483 182.434 61.315 181.965H61.2513C61.2513 182.518 61.2615 183.04 61.2832 183.528C61.2832 183.954 61.2883 184.374 61.2991 184.789C61.3093 185.203 61.315 185.506 61.315 185.698V196.321H55.8027V173.511Z" fill="black"/>
<path d="M92.5723 173.511H98.435L102.004 185.474C102.131 185.9 102.253 186.347 102.37 186.814C102.487 187.283 102.598 187.719 102.705 188.122C102.81 188.591 102.928 189.048 103.055 189.494H103.119C103.246 189.048 103.363 188.591 103.469 188.122C103.575 187.719 103.687 187.283 103.804 186.814C103.921 186.347 104.043 185.9 104.17 185.474L107.707 173.511H113.411L105.923 196.321H100.092L92.5723 173.511Z" fill="black"/>
<path d="M120.357 173.511H137.627V178.169H125.997V182.252H135.97V186.655H125.997V191.536H137.818V196.321H120.357V173.511Z" fill="black"/>
<path d="M151.391 178.296H144.764V173.511H163.722V178.296H157.031V196.321H151.391V178.296Z" fill="black"/>
<path d="M171.242 173.511H188.512V178.169H176.882V182.252H186.855V186.655H176.882V191.536H188.703V196.321H171.242V173.511Z" fill="black"/>
<path d="M196.669 173.511H207.566C208.691 173.511 209.743 173.655 210.721 173.942C211.697 174.229 212.542 174.649 213.254 175.202C213.965 175.755 214.522 176.441 214.926 177.26C215.33 178.079 215.532 179.02 215.532 180.083C215.532 181.423 215.207 182.561 214.56 183.497C213.912 184.433 212.919 185.134 211.581 185.602V185.698C212.579 186.039 213.338 186.533 213.859 187.181C214.379 187.83 214.724 188.729 214.895 189.877C215.022 190.622 215.102 191.35 215.134 192.062C215.165 192.775 215.202 193.413 215.245 193.977C215.287 194.541 215.351 195.008 215.436 195.38C215.521 195.753 215.659 195.97 215.85 196.034V196.321H210.37C210.221 196.236 210.109 196.018 210.035 195.667C209.961 195.316 209.897 194.891 209.844 194.391C209.791 193.892 209.743 193.349 209.701 192.764C209.658 192.18 209.594 191.6 209.51 191.026C209.361 189.963 208.994 189.154 208.41 188.601C207.826 188.048 206.929 187.771 205.718 187.771H202.309V196.321H196.669V173.511ZM206.546 183.592C207.672 183.592 208.516 183.348 209.08 182.858C209.642 182.37 209.924 181.689 209.924 180.817C209.924 179.987 209.653 179.307 209.111 178.775C208.57 178.243 207.757 177.977 206.674 177.977H202.309V183.592H206.546Z" fill="black"/>
<path d="M230.38 173.511H236.179L244.4 196.321H238.473L237.135 192.206H229.169L227.863 196.321H222.191L230.38 173.511ZM235.829 188.154L234.108 182.635C234.002 182.338 233.895 182.008 233.79 181.646C233.683 181.285 233.588 180.934 233.503 180.593C233.396 180.211 233.301 179.817 233.216 179.413H233.152C233.046 179.817 232.939 180.211 232.834 180.593C232.727 180.934 232.627 181.285 232.531 181.646C232.435 182.008 232.334 182.338 232.228 182.635L230.476 188.154H235.829Z" fill="black"/>
<path d="M251.409 173.511H257.081L263.836 184.964C263.921 185.134 264.053 185.379 264.234 185.698C264.414 186.017 264.59 186.336 264.76 186.655C264.972 187.038 265.184 187.442 265.397 187.867H265.461C265.439 187.357 265.429 186.868 265.429 186.4C265.407 185.996 265.397 185.602 265.397 185.219V173.511H270.909V196.321H265.238L258.547 185.028C258.44 184.879 258.297 184.64 258.116 184.31C257.935 183.981 257.76 183.635 257.591 183.273C257.378 182.869 257.155 182.434 256.921 181.965H256.858C256.858 182.518 256.868 183.04 256.89 183.528C256.89 183.954 256.895 184.374 256.906 184.789C256.916 185.203 256.921 185.506 256.921 185.698V196.321H251.409V173.511Z" fill="black"/>
<path d="M288.53 196.864C287.021 196.864 285.646 196.699 284.403 196.369C283.161 196.04 282.098 195.551 281.217 194.902C280.335 194.253 279.645 193.445 279.146 192.477C278.646 191.51 278.386 190.398 278.365 189.143H284.037C284.164 190.292 284.6 191.121 285.343 191.632C286.086 192.142 287.138 192.397 288.498 192.397C288.965 192.397 289.416 192.355 289.852 192.27C290.287 192.185 290.675 192.046 291.015 191.855C291.354 191.664 291.63 191.414 291.843 191.105C292.055 190.797 292.162 190.43 292.162 190.005C292.162 189.558 292.05 189.186 291.827 188.888C291.604 188.591 291.28 188.336 290.856 188.122C290.43 187.91 289.91 187.724 289.294 187.564C288.678 187.405 287.977 187.229 287.191 187.038C286.193 186.804 285.21 186.538 284.244 186.24C283.277 185.943 282.412 185.538 281.647 185.028C280.882 184.517 280.261 183.869 279.783 183.082C279.305 182.295 279.066 181.306 279.066 180.115C279.066 178.903 279.299 177.856 279.767 176.972C280.234 176.09 280.872 175.361 281.679 174.787C282.486 174.213 283.442 173.788 284.547 173.511C285.651 173.235 286.841 173.096 288.115 173.096C289.347 173.096 290.499 173.24 291.572 173.527C292.645 173.814 293.58 174.245 294.376 174.819C295.173 175.393 295.81 176.122 296.288 177.004C296.766 177.887 297.037 178.924 297.101 180.115H291.588C291.482 179.222 291.11 178.541 290.473 178.073C289.836 177.605 288.986 177.371 287.924 177.371C286.926 177.371 286.129 177.568 285.534 177.961C284.939 178.355 284.642 178.871 284.642 179.509C284.642 179.913 284.754 180.248 284.977 180.514C285.2 180.78 285.524 181.008 285.949 181.2C286.373 181.391 286.91 181.566 287.558 181.726C288.205 181.885 288.954 182.061 289.804 182.252C290.866 182.508 291.88 182.795 292.847 183.114C293.813 183.433 294.668 183.858 295.412 184.39C296.155 184.922 296.75 185.592 297.196 186.4C297.642 187.208 297.865 188.218 297.865 189.43C297.865 190.622 297.626 191.68 297.148 192.605C296.671 193.53 296.012 194.306 295.173 194.934C294.334 195.561 293.346 196.04 292.21 196.369C291.073 196.699 289.846 196.864 288.53 196.864Z" fill="black"/>
</svg>
